SourceSans3-Black.ufo
<glyph name="two" format="2">
	<unicode hex="0032"/>
	<advance width="540"/>
	<outline>
		<contour>
			<point x="36" y="0" type="line"/>
			<point x="496" y="0" type="line"/>
			<point x="496" y="144" type="line"/>
			<point x="374" y="144" type="line" smooth="yes"/>
			<point x="346" y="144"/>
			<point x="300" y="140"/>
			<point x="268" y="136" type="curve"/>
			<point x="364" y="228"/>
			<point x="466" y="328"/>
			<point x="466" y="440" type="curve" smooth="yes"/>
			<point x="466" y="564"/>
			<point x="376" y="646"/>
			<point x="248" y="646" type="curve" smooth="yes"/>
			<point x="156" y="646"/>
			<point x="96" y="612"/>
			<point x="32" y="540" type="curve"/>
			<point x="120" y="452" type="line"/>
			<point x="150" y="482"/>
			<point x="182" y="512"/>
			<point x="224" y="512" type="curve" smooth="yes"/>
			<point x="270" y="512"/>
			<point x="302" y="485"/>
			<point x="302" y="428" type="curve" smooth="yes"/>
			<point x="302" y="344"/>
			<point x="184" y="232"/>
			<point x="36" y="106" type="curve"/>
		</contour>
	</outline>
</glyph>
<glyph name="T" format="2">
	<unicode hex="0054"/>
	<advance width="564"/>
	<outline>
		<contour>
			<point x="196" y="0" type="line"/>
			<point x="368" y="0" type="line"/>
			<point x="368" y="506" type="line"/>
			<point x="540" y="506" type="line"/>
			<point x="540" y="650" type="line"/>
			<point x="24" y="650" type="line"/>
			<point x="24" y="506" type="line"/>
			<point x="196" y="506" type="line"/>
		</contour>
	</outline>
	<anchor name="aboverightUC" x="460" y="672"/>
	<anchor name="aboveUC" x="280" y="672"/>
	<anchor name="baseLC" x="280" y="0"/>
	<anchor name="belowLC" x="280" y="-22"/>
</glyph>
<glyph name="m" format="2">
	<unicode hex="006D"/>
	<advance width="868"/>
	<outline>
		<contour>
			<point x="58" y="0" type="line"/>
			<point x="230" y="0" type="line"/>
			<point x="230" y="328" type="line"/>
			<point x="256" y="354"/>
			<point x="280" y="366"/>
			<point x="300" y="366" type="curve" smooth="yes"/>
			<point x="334" y="366"/>
			<point x="350" y="350"/>
			<point x="350" y="286" type="curve" smooth="yes"/>
			<point x="350" y="0" type="line"/>
			<point x="522" y="0" type="line"/>
			<point x="522" y="328" type="line"/>
			<point x="548" y="354"/>
			<point x="572" y="366"/>
			<point x="592" y="366" type="curve" smooth="yes"/>
			<point x="626" y="366"/>
			<point x="642" y="350"/>
			<point x="642" y="286" type="curve" smooth="yes"/>
			<point x="642" y="0" type="line"/>
			<point x="814" y="0" type="line"/>
			<point x="814" y="308" type="line" smooth="yes"/>
			<point x="814" y="432"/>
			<point x="766" y="512"/>
			<point x="656" y="512" type="curve" smooth="yes"/>
			<point x="588" y="512"/>
			<point x="543" y="474"/>
			<point x="502" y="432" type="curve"/>
			<point x="475" y="484"/>
			<point x="432" y="512"/>
			<point x="364" y="512" type="curve" smooth="yes"/>
			<point x="296" y="512"/>
			<point x="254" y="478"/>
			<point x="214" y="439" type="curve"/>
			<point x="210" y="439" type="line"/>
			<point x="198" y="500" type="line"/>
			<point x="58" y="500" type="line"/>
		</contour>
	</outline>
	<anchor name="aboveLC" x="450" y="522"/>
	<anchor name="belowLC" x="440" y="-22"/>
</glyph>
<glyph name="eogonek" format="2">
	<unicode hex="0119"/>
	<advance width="526"/>
	<outline>
		<contour>
			<point x="368" y="-220" type="curve" smooth="yes"/>
			<point x="406" y="-220"/>
			<point x="454" y="-206"/>
			<point x="484" y="-184" type="curve"/>
			<point x="450" y="-96" type="line"/>
			<point x="438" y="-102"/>
			<point x="422" y="-108"/>
			<point x="404" y="-108" type="curve" smooth="yes"/>
			<point x="386" y="-108"/>
			<point x="366" y="-98"/>
			<point x="366" y="-76" type="curve" smooth="yes"/>
			<point x="366" y="-40"/>
			<point x="384" y="-14"/>
			<point x="472" y="46" type="curve"/>
			<point x="418" y="148" type="line"/>
			<point x="382" y="128"/>
			<point x="348" y="118"/>
			<point x="314" y="118" type="curve" smooth="yes"/>
			<point x="256" y="118"/>
			<point x="194" y="140"/>
			<point x="190" y="250" type="curve" smooth="yes"/>
			<point x="186" y="352"/>
			<point x="234" y="382"/>
			<point x="276" y="382" type="curve" smooth="yes"/>
			<point x="328" y="382"/>
			<point x="344" y="348"/>
			<point x="344" y="310" type="curve"/>
			<point x="166" y="310" type="line"/>
			<point x="168" y="198" type="line"/>
			<point x="483" y="198" type="line"/>
			<point x="486" y="210"/>
			<point x="490" y="240"/>
			<point x="490" y="270" type="curve" smooth="yes"/>
			<point x="490" y="404"/>
			<point x="420" y="512"/>
			<point x="272" y="512" type="curve" smooth="yes"/>
			<point x="150" y="512"/>
			<point x="32" y="412"/>
			<point x="32" y="250" type="curve" smooth="yes"/>
			<point x="32" y="84"/>
			<point x="144" y="-12"/>
			<point x="290" y="-12" type="curve" smooth="yes"/>
			<point x="300" y="-12"/>
			<point x="314" y="-8"/>
			<point x="320" y="-6" type="curve"/>
			<point x="318" y="-2" type="line"/>
			<point x="266" y="-36"/>
			<point x="242" y="-70"/>
			<point x="242" y="-116" type="curve" smooth="yes"/>
			<point x="242" y="-186"/>
			<point x="298" y="-220"/>
		</contour>
	</outline>
	<anchor name="aboveLC" x="270" y="522"/>
	<anchor name="belowLC" x="280" y="-222"/>
</glyph>
<glyph name="oe" format="2">
	<unicode hex="0153"/>
	<advance width="816"/>
	<outline>
		<contour>
			<point x="268" y="-12" type="curve" smooth="yes"/>
			<point x="340" y="-12"/>
			<point x="386" y="14"/>
			<point x="428" y="62" type="curve"/>
			<point x="470" y="12"/>
			<point x="530" y="-12"/>
			<point x="598" y="-12" type="curve" smooth="yes"/>
			<point x="640" y="-12"/>
			<point x="712" y="8"/>
			<point x="762" y="46" type="curve"/>
			<point x="708" y="148" type="line"/>
			<point x="672" y="128"/>
			<point x="638" y="118"/>
			<point x="604" y="118" type="curve" smooth="yes"/>
			<point x="553" y="118"/>
			<point x="513" y="139"/>
			<point x="498" y="198" type="curve"/>
			<point x="773" y="198" type="line"/>
			<point x="776" y="210"/>
			<point x="780" y="236"/>
			<point x="780" y="266" type="curve" smooth="yes"/>
			<point x="780" y="400"/>
			<point x="710" y="512"/>
			<point x="574" y="512" type="curve" smooth="yes"/>
			<point x="520" y="512"/>
			<point x="466" y="486"/>
			<point x="426" y="438" type="curve"/>
			<point x="390" y="482"/>
			<point x="342" y="512"/>
			<point x="272" y="512" type="curve" smooth="yes"/>
			<point x="142" y="512"/>
			<point x="32" y="416"/>
			<point x="32" y="250" type="curve" smooth="yes"/>
			<point x="32" y="84"/>
			<point x="138" y="-12"/>
		</contour>
		<contour>
			<point x="272" y="126" type="curve" smooth="yes"/>
			<point x="228" y="126"/>
			<point x="206" y="174"/>
			<point x="206" y="250" type="curve" smooth="yes"/>
			<point x="206" y="326"/>
			<point x="228" y="374"/>
			<point x="272" y="374" type="curve" smooth="yes"/>
			<point x="316" y="374"/>
			<point x="340" y="326"/>
			<point x="340" y="250" type="curve" smooth="yes"/>
			<point x="340" y="174"/>
			<point x="316" y="126"/>
		</contour>
		<contour>
			<point x="498" y="310" type="line"/>
			<point x="505" y="362"/>
			<point x="534" y="382"/>
			<point x="572" y="382" type="curve" smooth="yes"/>
			<point x="618" y="382"/>
			<point x="634" y="350"/>
			<point x="634" y="310" type="curve"/>
		</contour>
	</outline>
	<anchor name="aboveLC" x="430" y="522"/>
	<anchor name="belowLC" x="430" y="-22"/>
</glyph>
<glyph name="Eturned" format="2">
	<unicode hex="018E"/>
	<advance width="556"/>
	<outline>
		<contour>
			<point x="54" y="0" type="line"/>
			<point x="484" y="0" type="line"/>
			<point x="484" y="650" type="line"/>
			<point x="64" y="650" type="line"/>
			<point x="64" y="506" type="line"/>
			<point x="312" y="506" type="line"/>
			<point x="312" y="404" type="line"/>
			<point x="100" y="404" type="line"/>
			<point x="100" y="260" type="line"/>
			<point x="312" y="260" type="line"/>
			<point x="312" y="144" type="line"/>
			<point x="54" y="144" type="line"/>
		</contour>
	</outline>
	<anchor name="aboveUC" x="280" y="672"/>
	<anchor name="belowLC" x="270" y="-22"/>
	<anchor name="ogonekUC" x="270" y="0"/>
</glyph>
<glyph name="Bstroke" format="2">
	<unicode hex="0243"/>
	<advance width="636"/>
	<outline>
		<contour>
			<point x="92" y="0" type="line"/>
			<point x="350" y="0" type="line" smooth="yes"/>
			<point x="490" y="0"/>
			<point x="606" y="60"/>
			<point x="606" y="200" type="curve" smooth="yes"/>
			<point x="606" y="293"/>
			<point x="564" y="346"/>
			<point x="494" y="364" type="curve"/>
			<point x="494" y="368" type="line"/>
			<point x="546" y="388"/>
			<point x="576" y="439"/>
			<point x="576" y="498" type="curve" smooth="yes"/>
			<point x="576" y="618"/>
			<point x="466" y="650"/>
			<point x="330" y="650" type="curve" smooth="yes"/>
			<point x="92" y="650" type="line"/>
		</contour>
		<contour>
			<point x="264" y="406" type="line"/>
			<point x="264" y="528" type="line"/>
			<point x="326" y="528" type="line" smooth="yes"/>
			<point x="382" y="528"/>
			<point x="408" y="512"/>
			<point x="408" y="472" type="curve" smooth="yes"/>
			<point x="408" y="432"/>
			<point x="382" y="406"/>
			<point x="326" y="406" type="curve" smooth="yes"/>
		</contour>
		<contour>
			<point x="264" y="122" type="line"/>
			<point x="264" y="304" type="line"/>
			<point x="336" y="304" type="line" smooth="yes"/>
			<point x="406" y="304"/>
			<point x="440" y="280"/>
			<point x="440" y="220" type="curve" smooth="yes"/>
			<point x="440" y="154"/>
			<point x="406" y="122"/>
			<point x="336" y="122" type="curve" smooth="yes"/>
		</contour>
		<contour>
			<point x="22" y="158" type="line"/>
			<point x="380" y="158" type="line"/>
			<point x="380" y="270" type="line"/>
			<point x="94" y="270" type="line"/>
			<point x="22" y="264" type="line"/>
		</contour>
	</outline>
</glyph>
<glyph name="gscript" format="2">
	<unicode hex="0261"/>
	<advance width="580"/>
	<outline>
		<contour>
			<point x="256" y="-196" type="curve" smooth="yes"/>
			<point x="426" y="-196"/>
			<point x="522" y="-118"/>
			<point x="522" y="26" type="curve" smooth="yes"/>
			<point x="522" y="500" type="line"/>
			<point x="384" y="500" type="line"/>
			<point x="372" y="454" type="line"/>
			<point x="368" y="454" type="line"/>
			<point x="332" y="496"/>
			<point x="292" y="512"/>
			<point x="244" y="512" type="curve" smooth="yes"/>
			<point x="142" y="512"/>
			<point x="36" y="412"/>
			<point x="36" y="260" type="curve" smooth="yes"/>
			<point x="36" y="120"/>
			<point x="116" y="16"/>
			<point x="240" y="16" type="curve" smooth="yes"/>
			<point x="282" y="16"/>
			<point x="323" y="32"/>
			<point x="354" y="60" type="curve"/>
			<point x="350" y="10" type="line"/>
			<point x="346" y="-30"/>
			<point x="322" y="-62"/>
			<point x="256" y="-62" type="curve" smooth="yes"/>
			<point x="218" y="-62"/>
			<point x="168" y="-52"/>
			<point x="122" y="-28" type="curve"/>
			<point x="66" y="-140" type="line"/>
			<point x="126" y="-178"/>
			<point x="204" y="-196"/>
		</contour>
		<contour>
			<point x="286" y="154" type="curve" smooth="yes"/>
			<point x="240" y="154"/>
			<point x="210" y="191"/>
			<point x="210" y="262" type="curve" smooth="yes"/>
			<point x="210" y="337"/>
			<point x="244" y="372"/>
			<point x="282" y="372" type="curve" smooth="yes"/>
			<point x="304" y="372"/>
			<point x="330" y="366"/>
			<point x="350" y="348" type="curve"/>
			<point x="350" y="192" type="line"/>
			<point x="330" y="162"/>
			<point x="312" y="154"/>
		</contour>
	</outline>
	<anchor name="aboveLC" x="290" y="522"/>
	<anchor name="belowLC" x="300" y="-182"/>
</glyph>
<glyph name="rhookturned" format="2">
	<unicode hex="027B"/>
	<advance width="418"/>
	<outline>
		<contour>
			<point x="372" y="-188" type="curve" smooth="yes"/>
			<point x="413" y="-188"/>
			<point x="436" y="-182"/>
			<point x="456" y="-174" type="curve"/>
			<point x="426" y="-48" type="line"/>
			<point x="416" y="-52"/>
			<point x="409" y="-54"/>
			<point x="400" y="-54" type="curve" smooth="yes"/>
			<point x="371" y="-54"/>
			<point x="360" y="-37"/>
			<point x="360" y="10" type="curve" smooth="yes"/>
			<point x="360" y="500" type="line"/>
			<point x="188" y="500" type="line"/>
			<point x="188" y="222" type="line"/>
			<point x="164" y="160"/>
			<point x="120" y="138"/>
			<point x="84" y="138" type="curve" smooth="yes"/>
			<point x="62" y="138"/>
			<point x="50" y="140"/>
			<point x="32" y="144" type="curve"/>
			<point x="0" y="-2" type="line"/>
			<point x="14" y="-8"/>
			<point x="31" y="-12"/>
			<point x="62" y="-12" type="curve" smooth="yes"/>
			<point x="111" y="-12"/>
			<point x="167" y="18"/>
			<point x="204" y="86" type="curve"/>
			<point x="208" y="86" type="line"/>
			<point x="208" y="-10" type="line" smooth="yes"/>
			<point x="208" y="-102"/>
			<point x="246" y="-188"/>
		</contour>
	</outline>
	<anchor name="aboveLC" x="270" y="522"/>
	<anchor name="belowLC" x="190" y="-182"/>
</glyph>
<glyph name="apicaldental" format="2">
	<unicode hex="027F"/>
	<advance width="324"/>
	<outline>
		<contour>
			<point x="98" y="-176" type="line"/>
			<point x="270" y="-176" type="line"/>
			<point x="270" y="298" type="line" smooth="yes"/>
			<point x="270" y="410"/>
			<point x="224" y="512"/>
			<point x="66" y="512" type="curve" smooth="yes"/>
			<point x="25" y="512"/>
			<point x="2" y="506"/>
			<point x="-18" y="498" type="curve"/>
			<point x="12" y="372" type="line"/>
			<point x="22" y="376"/>
			<point x="29" y="378"/>
			<point x="38" y="378" type="curve" smooth="yes"/>
			<point x="81" y="378"/>
			<point x="98" y="358"/>
			<point x="98" y="304" type="curve" smooth="yes"/>
		</contour>
	</outline>
	<anchor name="aboveLC" x="140" y="522"/>
	<anchor name="belowLC" x="180" y="-182"/>
</glyph>
<glyph name="kturned" format="2">
	<unicode hex="029E"/>
	<advance width="570"/>
	<outline>
		<contour>
			<point x="342" y="-176" type="line"/>
			<point x="512" y="-176" type="line"/>
			<point x="512" y="500" type="line"/>
			<point x="342" y="500" type="line"/>
			<point x="342" y="380" type="line"/>
			<point x="4" y="0" type="line"/>
			<point x="200" y="0" type="line"/>
			<point x="338" y="174" type="line"/>
			<point x="342" y="174" type="line"/>
		</contour>
		<contour>
			<point x="200" y="212" type="line"/>
			<point x="308" y="308" type="line"/>
			<point x="190" y="500" type="line"/>
			<point x="14" y="500" type="line"/>
		</contour>
	</outline>
	<anchor name="aboveLC" x="280" y="522"/>
	<anchor name="belowLC" x="420" y="-200"/>
</glyph>
<glyph name="tesh" format="2">
	<unicode hex="02A7"/>
	<advance width="604"/>
	<outline>
		<contour>
			<point x="264" y="-12" type="curve" smooth="yes"/>
			<point x="304" y="-12"/>
			<point x="332" y="-4"/>
			<point x="352" y="2" type="curve"/>
			<point x="326" y="126" type="line"/>
			<point x="318" y="124"/>
			<point x="310" y="122"/>
			<point x="302" y="122" type="curve" smooth="yes"/>
			<point x="275" y="122"/>
			<point x="252" y="140"/>
			<point x="252" y="195" type="curve" smooth="yes"/>
			<point x="252" y="366" type="line"/>
			<point x="466" y="366" type="line"/>
			<point x="466" y="500" type="line"/>
			<point x="252" y="500" type="line"/>
			<point x="252" y="650" type="line"/>
			<point x="110" y="650" type="line"/>
			<point x="90" y="500" type="line"/>
			<point x="14" y="494" type="line"/>
			<point x="14" y="366" type="line"/>
			<point x="80" y="366" type="line"/>
			<point x="80" y="192" type="line" smooth="yes"/>
			<point x="80" y="70"/>
			<point x="134" y="-12"/>
		</contour>
		<component base="esh" xOffset="314"/>
	</outline>
	<anchor name="aboveUC" x="350" y="722"/>
	<anchor name="belowLC" x="280" y="-182"/>
</glyph>
<glyph name="verticallinemod" format="2">
	<unicode hex="02C8"/>
	<advance width="220"/>
	<outline>
		<contour>
			<point x="48" y="368" type="line"/>
			<point x="172" y="368" type="line"/>
			<point x="178" y="696" type="line"/>
			<point x="42" y="696" type="line"/>
		</contour>
	</outline>
</glyph>
<glyph name="glottalstopreversed.sups" format="2">
	<unicode hex="02E4"/>
	<advance width="358"/>
	<outline>
		<contour>
			<point x="134" y="368" type="line"/>
			<point x="254" y="368" type="line"/>
			<point x="254" y="572" type="line"/>
			<point x="174" y="620"/>
			<point x="150" y="650"/>
			<point x="150" y="686" type="curve" smooth="yes"/>
			<point x="150" y="719"/>
			<point x="170" y="740"/>
			<point x="204" y="740" type="curve" smooth="yes"/>
			<point x="232" y="740"/>
			<point x="257" y="727"/>
			<point x="278" y="706" type="curve"/>
			<point x="338" y="772" type="line"/>
			<point x="306" y="808"/>
			<point x="256" y="836"/>
			<point x="194" y="836" type="curve" smooth="yes"/>
			<point x="96" y="836"/>
			<point x="30" y="782"/>
			<point x="30" y="688" type="curve" smooth="yes"/>
			<point x="30" y="624"/>
			<point x="72" y="578"/>
			<point x="134" y="532" type="curve"/>
		</contour>
	</outline>
</glyph>
<glyph name="commaabovecmb" format="2">
	<unicode hex="0313"/>
	<outline>
		<contour>
			<point x="-44" y="564" type="line"/>
			<point x="48" y="592"/>
			<point x="94" y="640"/>
			<point x="94" y="724" type="curve" smooth="yes"/>
			<point x="94" y="790"/>
			<point x="52" y="830"/>
			<point x="-6" y="830" type="curve" smooth="yes"/>
			<point x="-56" y="830"/>
			<point x="-94" y="800"/>
			<point x="-94" y="756" type="curve" smooth="yes"/>
			<point x="-94" y="713"/>
			<point x="-62" y="688"/>
			<point x="-26" y="688" type="curve" smooth="yes"/>
			<point x="-5" y="688"/>
			<point x="6" y="692"/>
			<point x="16" y="700" type="curve"/>
			<point x="16" y="666"/>
			<point x="-12" y="642"/>
			<point x="-72" y="624" type="curve"/>
		</contour>
	</outline>
	<anchor name="_aboveLC" x="0" y="522"/>
</glyph>
<glyph name="Pi" format="2">
	<unicode hex="03A0"/>
	<advance width="670"/>
	<outline>
		<contour>
			<point x="72" y="0" type="line"/>
			<point x="244" y="0" type="line"/>
			<point x="244" y="506" type="line"/>
			<point x="426" y="506" type="line"/>
			<point x="426" y="0" type="line"/>
			<point x="598" y="0" type="line"/>
			<point x="598" y="650" type="line"/>
			<point x="72" y="650" type="line"/>
		</contour>
	</outline>
</glyph>
<glyph name="Phi" format="2">
	<unicode hex="03A6"/>
	<advance width="776"/>
	<outline>
		<contour>
			<point x="362" y="60" type="curve" smooth="yes"/>
			<point x="414" y="60" type="line" smooth="yes"/>
			<point x="600" y="60"/>
			<point x="728" y="154"/>
			<point x="728" y="328" type="curve" smooth="yes"/>
			<point x="728" y="502"/>
			<point x="600" y="592"/>
			<point x="414" y="592" type="curve" smooth="yes"/>
			<point x="362" y="592" type="line" smooth="yes"/>
			<point x="176" y="592"/>
			<point x="48" y="502"/>
			<point x="48" y="328" type="curve" smooth="yes"/>
			<point x="48" y="154"/>
			<point x="176" y="60"/>
		</contour>
		<contour>
			<point x="352" y="188" type="line" smooth="yes"/>
			<point x="268" y="188"/>
			<point x="210" y="242"/>
			<point x="210" y="328" type="curve" smooth="yes"/>
			<point x="210" y="414"/>
			<point x="268" y="464"/>
			<point x="352" y="464" type="curve" smooth="yes"/>
			<point x="424" y="464" type="line" smooth="yes"/>
			<point x="508" y="464"/>
			<point x="566" y="414"/>
			<point x="566" y="328" type="curve" smooth="yes"/>
			<point x="566" y="242"/>
			<point x="508" y="188"/>
			<point x="424" y="188" type="curve" smooth="yes"/>
		</contour>
		<contour>
			<point x="312" y="-22" type="line"/>
			<point x="464" y="-22" type="line"/>
			<point x="464" y="672" type="line"/>
			<point x="312" y="672" type="line"/>
		</contour>
	</outline>
</glyph>
<glyph name="zeta" format="2">
	<unicode hex="03B6"/>
	<advance width="482"/>
	<outline>
		<contour>
			<point x="400" y="-188" type="line"/>
			<point x="444" y="-120"/>
			<point x="462" y="-48"/>
			<point x="462" y="-12" type="curve" smooth="yes"/>
			<point x="462" y="68"/>
			<point x="425" y="105"/>
			<point x="322" y="126" type="curve" smooth="yes"/>
			<point x="232" y="144"/>
			<point x="214" y="172"/>
			<point x="214" y="240" type="curve" smooth="yes"/>
			<point x="214" y="326"/>
			<point x="312" y="486"/>
			<point x="446" y="562" type="curve"/>
			<point x="452" y="562" type="line"/>
			<point x="452" y="696" type="line"/>
			<point x="70" y="696" type="line"/>
			<point x="70" y="562" type="line"/>
			<point x="129" y="568"/>
			<point x="228" y="570"/>
			<point x="264" y="572" type="curve"/>
			<point x="118" y="460"/>
			<point x="38" y="334"/>
			<point x="38" y="230" type="curve" smooth="yes"/>
			<point x="38" y="64"/>
			<point x="132" y="12"/>
			<point x="222" y="-8" type="curve" smooth="yes"/>
			<point x="292" y="-24"/>
			<point x="312" y="-34"/>
			<point x="312" y="-60" type="curve" smooth="yes"/>
			<point x="312" y="-85"/>
			<point x="292" y="-110"/>
			<point x="266" y="-146" type="curve"/>
		</contour>
	</outline>
	<anchor name="aboveUC" x="270" y="722"/>
	<anchor name="belowLC" x="220" y="-182"/>
</glyph>
<glyph name="be" format="2">
	<unicode hex="0431"/>
	<advance width="568"/>
	<outline>
		<contour>
			<point x="290" y="-12" type="curve" smooth="yes"/>
			<point x="430" y="-12"/>
			<point x="530" y="90"/>
			<point x="530" y="242" type="curve" smooth="yes"/>
			<point x="530" y="398"/>
			<point x="440" y="472"/>
			<point x="340" y="472" type="curve" smooth="yes"/>
			<point x="280" y="472"/>
			<point x="224" y="448"/>
			<point x="194" y="402" type="curve"/>
			<point x="202" y="296" type="line"/>
			<point x="226" y="334"/>
			<point x="258" y="348"/>
			<point x="286" y="348" type="curve" smooth="yes"/>
			<point x="327" y="348"/>
			<point x="354" y="326"/>
			<point x="354" y="242" type="curve" smooth="yes"/>
			<point x="354" y="170"/>
			<point x="334" y="126"/>
			<point x="288" y="126" type="curve" smooth="yes"/>
			<point x="236" y="126"/>
			<point x="202" y="170"/>
			<point x="202" y="274" type="curve" smooth="yes"/>
			<point x="202" y="520"/>
			<point x="214" y="520"/>
			<point x="390" y="542" type="curve" smooth="yes"/>
			<point x="436" y="548"/>
			<point x="486" y="560"/>
			<point x="512" y="582" type="curve"/>
			<point x="480" y="730" type="line"/>
			<point x="448" y="716"/>
			<point x="416" y="708"/>
			<point x="354" y="700" type="curve" smooth="yes"/>
			<point x="170" y="676"/>
			<point x="38" y="602"/>
			<point x="38" y="316" type="curve" smooth="yes"/>
			<point x="38" y="110"/>
			<point x="128" y="-12"/>
		</contour>
	</outline>
</glyph>
<glyph name="el" format="2">
	<unicode hex="043B"/>
	<advance width="590"/>
	<outline>
		<contour>
			<point x="69" y="-12" type="curve" smooth="yes"/>
			<point x="174" y="-12"/>
			<point x="233" y="52"/>
			<point x="250" y="164" type="curve" smooth="yes"/>
			<point x="260" y="230"/>
			<point x="268" y="300"/>
			<point x="276" y="366" type="curve"/>
			<point x="360" y="366" type="line"/>
			<point x="360" y="0" type="line"/>
			<point x="532" y="0" type="line"/>
			<point x="532" y="500" type="line"/>
			<point x="140" y="500" type="line"/>
			<point x="129" y="404"/>
			<point x="120" y="308"/>
			<point x="107" y="213" type="curve" smooth="yes"/>
			<point x="101" y="166"/>
			<point x="82" y="150"/>
			<point x="58" y="150" type="curve" smooth="yes"/>
			<point x="48" y="150"/>
			<point x="40" y="152"/>
			<point x="32" y="154" type="curve"/>
			<point x="4" y="0" type="line"/>
			<point x="24" y="-8"/>
			<point x="44" y="-12"/>
		</contour>
	</outline>
</glyph>
<glyph name="pe" format="2">
	<unicode hex="043F"/>
	<advance width="582"/>
	<outline>
		<contour>
			<point x="58" y="0" type="line"/>
			<point x="230" y="0" type="line"/>
			<point x="230" y="366" type="line"/>
			<point x="352" y="366" type="line"/>
			<point x="352" y="0" type="line"/>
			<point x="524" y="0" type="line"/>
			<point x="524" y="500" type="line"/>
			<point x="58" y="500" type="line"/>
		</contour>
	</outline>
</glyph>
<glyph name="zedescender" format="2">
	<unicode hex="0499"/>
	<advance width="484"/>
	<outline>
		<contour>
			<point x="154" y="-172" type="line"/>
			<point x="300" y="-172" type="line"/>
			<point x="320" y="10" type="line"/>
			<point x="148" y="10" type="line"/>
		</contour>
		<component base="ze"/>
	</outline>
</glyph>
<glyph name="hadescender" format="2">
	<unicode hex="04B3"/>
	<advance width="574"/>
	<outline>
		<contour>
			<point x="404" y="-172" type="line"/>
			<point x="550" y="-172" type="line"/>
			<point x="566" y="20" type="line"/>
			<point x="566" y="134" type="line"/>
			<point x="374" y="134" type="line"/>
			<point x="374" y="0" type="line"/>
			<point x="404" y="0" type="line"/>
		</contour>
		<component base="x"/>
	</outline>
</glyph>
<glyph name="Chedescender" format="2">
	<unicode hex="04B6"/>
	<advance width="660"/>
	<outline>
		<contour>
			<point x="488" y="-188" type="line"/>
			<point x="638" y="-188" type="line"/>
			<point x="652" y="36" type="line"/>
			<point x="652" y="144" type="line"/>
			<point x="460" y="144" type="line"/>
			<point x="460" y="0" type="line"/>
			<point x="488" y="0" type="line"/>
		</contour>
		<component base="Che"/>
	</outline>
</glyph>
<glyph name="dagger" format="2">
	<unicode hex="2020"/>
	<advance width="532"/>
	<outline>
		<contour>
			<point x="198" y="-80" type="line"/>
			<point x="334" y="-80" type="line"/>
			<point x="324" y="418" type="line"/>
			<point x="492" y="408" type="line"/>
			<point x="492" y="544" type="line"/>
			<point x="324" y="534" type="line"/>
			<point x="334" y="712" type="line"/>
			<point x="198" y="712" type="line"/>
			<point x="208" y="534" type="line"/>
			<point x="40" y="544" type="line"/>
			<point x="40" y="408" type="line"/>
			<point x="208" y="418" type="line"/>
		</contour>
	</outline>
</glyph>
<glyph name="summation" format="2">
	<unicode hex="2211"/>
	<advance width="546"/>
	<outline>
		<contour>
			<point x="28" y="-120" type="line"/>
			<point x="534" y="-120" type="line"/>
			<point x="534" y="24" type="line"/>
			<point x="240" y="24" type="line"/>
			<point x="240" y="28" type="line"/>
			<point x="396" y="256" type="line"/>
			<point x="246" y="486" type="line"/>
			<point x="246" y="490" type="line"/>
			<point x="512" y="490" type="line"/>
			<point x="512" y="634" type="line"/>
			<point x="38" y="634" type="line"/>
			<point x="38" y="534" type="line"/>
			<point x="222" y="256" type="line"/>
			<point x="28" y="-20" type="line"/>
		</contour>
	</outline>
</glyph>
<glyph name="trianglesmallupblack" format="2">
	<unicode hex="25B4"/>
	<advance width="360"/>
	<outline>
		<contour>
			<point x="6" y="118" type="line"/>
			<point x="354" y="118" type="line"/>
			<point x="354" y="122" type="line"/>
			<point x="182" y="438" type="line"/>
			<point x="178" y="438" type="line"/>
			<point x="6" y="122" type="line"/>
		</contour>
	</outline>
</glyph>
<glyph name="AinEgypt" format="2">
	<unicode hex="A724"/>
	<advance width="360"/>
	<outline>
		<contour>
			<point x="262" y="314" type="curve"/>
			<point x="284" y="402" type="line"/>
			<point x="214" y="411"/>
			<point x="170" y="443"/>
			<point x="170" y="478" type="curve" smooth="yes"/>
			<point x="170" y="488"/>
			<point x="170" y="494"/>
			<point x="170" y="502" type="curve"/>
			<point x="130" y="502" type="line"/>
			<point x="148" y="488"/>
			<point x="178" y="474"/>
			<point x="204" y="474" type="curve" smooth="yes"/>
			<point x="262" y="474"/>
			<point x="304" y="508"/>
			<point x="304" y="564" type="curve" smooth="yes"/>
			<point x="304" y="624"/>
			<point x="262" y="662"/>
			<point x="178" y="662" type="curve" smooth="yes"/>
			<point x="92" y="662"/>
			<point x="36" y="608"/>
			<point x="36" y="510" type="curve" smooth="yes"/>
			<point x="36" y="394"/>
			<point x="114" y="318"/>
		</contour>
	</outline>
</glyph>
<glyph name="rrotunda" format="2">
	<unicode hex="A75B"/>
	<advance width="446"/>
	<outline>
		<contour>
			<point x="300" y="-12" type="curve" smooth="yes"/>
			<point x="338" y="-12"/>
			<point x="368" y="-4"/>
			<point x="386" y="6" type="curve"/>
			<point x="360" y="132" type="line"/>
			<point x="348" y="128"/>
			<point x="328" y="126"/>
			<point x="308" y="126" type="curve" smooth="yes"/>
			<point x="286" y="126"/>
			<point x="248" y="128"/>
			<point x="226" y="146" type="curve"/>
			<point x="322" y="210"/>
			<point x="378" y="276"/>
			<point x="378" y="362" type="curve" smooth="yes"/>
			<point x="378" y="452"/>
			<point x="308" y="512"/>
			<point x="200" y="512" type="curve" smooth="yes"/>
			<point x="138" y="512"/>
			<point x="74" y="486"/>
			<point x="28" y="446" type="curve"/>
			<point x="94" y="348" type="line"/>
			<point x="114" y="364"/>
			<point x="136" y="374"/>
			<point x="158" y="374" type="curve" smooth="yes"/>
			<point x="184" y="374"/>
			<point x="202" y="356"/>
			<point x="202" y="324" type="curve" smooth="yes"/>
			<point x="202" y="282"/>
			<point x="156" y="221"/>
			<point x="60" y="166" type="curve"/>
			<point x="90" y="40"/>
			<point x="176" y="-12"/>
		</contour>
	</outline>
	<anchor name="aboveLC" x="230" y="522"/>
	<anchor name="belowLC" x="210" y="-22"/>
</glyph>
<glyph name="rinsular" format="2">
	<unicode hex="A783"/>
	<advance width="582"/>
	<outline>
		<contour>
			<point x="58" y="-176" type="line"/>
			<point x="230" y="-176" type="line"/>
			<point x="230" y="304" type="line"/>
			<point x="264" y="354"/>
			<point x="292" y="374"/>
			<point x="328" y="374" type="curve" smooth="yes"/>
			<point x="356" y="374"/>
			<point x="378" y="350"/>
			<point x="378" y="300" type="curve" smooth="yes"/>
			<point x="378" y="236"/>
			<point x="360" y="180"/>
			<point x="298" y="116" type="curve"/>
			<point x="324" y="20"/>
			<point x="400" y="-12"/>
			<point x="486" y="-12" type="curve" smooth="yes"/>
			<point x="520" y="-12"/>
			<point x="546" y="-2"/>
			<point x="562" y="6" type="curve"/>
			<point x="534" y="132" type="line"/>
			<point x="524" y="128"/>
			<point x="516" y="126"/>
			<point x="504" y="126" type="curve" smooth="yes"/>
			<point x="494" y="126"/>
			<point x="479" y="127"/>
			<point x="468" y="138" type="curve"/>
			<point x="526" y="198"/>
			<point x="554" y="261"/>
			<point x="554" y="340" type="curve" smooth="yes"/>
			<point x="554" y="454"/>
			<point x="482" y="512"/>
			<point x="374" y="512" type="curve" smooth="yes"/>
			<point x="304" y="512"/>
			<point x="258" y="476"/>
			<point x="214" y="436" type="curve"/>
			<point x="210" y="436" type="line"/>
			<point x="198" y="500" type="line"/>
			<point x="58" y="500" type="line"/>
		</contour>
	</outline>
	<anchor name="aboveLC" x="330" y="522"/>
	<anchor name="belowLC" x="150" y="-182"/>
</glyph>
<glyph name="AE.sc" format="2">
	<advance width="752"/>
	<outline>
		<contour>
			<point x="-22" y="0" type="line"/>
			<point x="155" y="0" type="line"/>
			<point x="273" y="277" type="line"/>
			<point x="289" y="313"/>
			<point x="304" y="360"/>
			<point x="322" y="408" type="curve"/>
			<point x="326" y="408" type="line"/>
			<point x="326" y="0" type="line"/>
			<point x="698" y="0" type="line"/>
			<point x="698" y="132" type="line"/>
			<point x="498" y="132" type="line"/>
			<point x="498" y="206" type="line"/>
			<point x="660" y="206" type="line"/>
			<point x="660" y="330" type="line"/>
			<point x="498" y="330" type="line"/>
			<point x="498" y="400" type="line"/>
			<point x="688" y="400" type="line"/>
			<point x="688" y="532" type="line"/>
			<point x="221" y="532" type="line"/>
		</contour>
		<contour>
			<point x="109" y="94" type="line"/>
			<point x="410" y="94" type="line"/>
			<point x="410" y="216" type="line"/>
			<point x="109" y="216" type="line"/>
		</contour>
	</outline>
	<anchor name="aboveUC" x="450" y="562"/>
</glyph>
<glyph name="Aogonek.ds" format="2">
	<advance width="516"/>
	<outline>
		<contour>
			<point x="278" y="-228" type="curve" smooth="yes"/>
			<point x="318" y="-228"/>
			<point x="368" y="-212"/>
			<point x="398" y="-190" type="curve"/>
			<point x="360" y="-94" type="line"/>
			<point x="350" y="-100"/>
			<point x="334" y="-108"/>
			<point x="318" y="-108" type="curve" smooth="yes"/>
			<point x="292" y="-108"/>
			<point x="276" y="-98"/>
			<point x="276" y="-74" type="curve" smooth="yes"/>
			<point x="276" y="-57"/>
			<point x="288" y="-45"/>
			<point x="310" y="-26" type="curve"/>
			<point x="248" y="24" type="line"/>
			<point x="188" y="-17"/>
			<point x="142" y="-66"/>
			<point x="142" y="-126" type="curve" smooth="yes"/>
			<point x="142" y="-190"/>
			<point x="202" y="-228"/>
		</contour>
		<component base="A.sc"/>
	</outline>
	<anchor name="aboveUC" x="254" y="562"/>
</glyph>
<glyph name="Eng.a" format="2">
	<advance width="672"/>
	<outline>
		<contour>
			<point x="410" y="-188" type="curve" smooth="yes"/>
			<point x="552" y="-188"/>
			<point x="600" y="-86"/>
			<point x="600" y="26" type="curve" smooth="yes"/>
			<point x="600" y="650" type="line"/>
			<point x="436" y="650" type="line"/>
			<point x="436" y="462" type="line" smooth="yes"/>
			<point x="436" y="382"/>
			<point x="450" y="284"/>
			<point x="458" y="214" type="curve"/>
			<point x="454" y="214" type="line"/>
			<point x="434" y="264"/>
			<point x="414" y="316"/>
			<point x="392" y="360" type="curve" smooth="yes"/>
			<point x="248" y="650" type="line"/>
			<point x="72" y="650" type="line"/>
			<point x="72" y="0" type="line"/>
			<point x="236" y="0" type="line"/>
			<point x="236" y="188" type="line" smooth="yes"/>
			<point x="236" y="268"/>
			<point x="222" y="362"/>
			<point x="214" y="436" type="curve"/>
			<point x="218" y="436" type="line"/>
			<point x="238" y="386"/>
			<point x="258" y="334"/>
			<point x="280" y="290" type="curve" smooth="yes"/>
			<point x="424" y="0" type="line"/>
			<point x="432" y="0" type="line"/>
			<point x="432" y="-28"/>
			<point x="418" y="-54"/>
			<point x="382" y="-54" type="curve" smooth="yes"/>
			<point x="370" y="-54"/>
			<point x="360" y="-52"/>
			<point x="346" y="-48" type="curve"/>
			<point x="316" y="-174" type="line"/>
			<point x="338" y="-182"/>
			<point x="364" y="-188"/>
		</contour>
	</outline>
	<anchor name="aboveUC" x="340" y="672"/>
	<anchor name="belowLC" x="350" y="-182"/>
</glyph>
<glyph name="Ezh.sc" format="2">
	<advance width="506"/>
	<outline>
		<contour>
			<point x="242" y="-12" type="curve" smooth="yes"/>
			<point x="388" y="-12"/>
			<point x="476" y="50"/>
			<point x="476" y="170" type="curve" smooth="yes"/>
			<point x="476" y="252"/>
			<point x="440" y="298"/>
			<point x="344" y="322" type="curve"/>
			<point x="450" y="428" type="line"/>
			<point x="450" y="532" type="line"/>
			<point x="64" y="532" type="line"/>
			<point x="64" y="392" type="line"/>
			<point x="246" y="392" type="line"/>
			<point x="146" y="293" type="line"/>
			<point x="191" y="219" type="line"/>
			<point x="214" y="226"/>
			<point x="224" y="227"/>
			<point x="247" y="227" type="curve" smooth="yes"/>
			<point x="281" y="227"/>
			<point x="310" y="210"/>
			<point x="310" y="174" type="curve" smooth="yes"/>
			<point x="310" y="138"/>
			<point x="284" y="118"/>
			<point x="242" y="118" type="curve" smooth="yes"/>
			<point x="192" y="118"/>
			<point x="146" y="136"/>
			<point x="108" y="166" type="curve"/>
			<point x="36" y="62" type="line"/>
			<point x="100" y="10"/>
			<point x="166" y="-12"/>
		</contour>
	</outline>
	<anchor name="aboveUC" x="260" y="562"/>
	<anchor name="belowLC" x="270" y="-22"/>
</glyph>
<glyph name="Ginsular.x" format="2">
	<advance width="628"/>
	<outline>
		<contour>
			<point x="292" y="-12" type="curve" smooth="yes"/>
			<point x="454" y="-12"/>
			<point x="562" y="62"/>
			<point x="562" y="174" type="curve" smooth="yes"/>
			<point x="562" y="274"/>
			<point x="509" y="322"/>
			<point x="388" y="352" type="curve" smooth="yes"/>
			<point x="265" y="382"/>
			<point x="238" y="402"/>
			<point x="238" y="438" type="curve" smooth="yes"/>
			<point x="238" y="480"/>
			<point x="276" y="506"/>
			<point x="342" y="506" type="curve" smooth="yes"/>
			<point x="532" y="506" type="line"/>
			<point x="532" y="650" type="line"/>
			<point x="34" y="650" type="line"/>
			<point x="34" y="506" type="line"/>
			<point x="140" y="506" type="line"/>
			<point x="140" y="502" type="line"/>
			<point x="97" y="490"/>
			<point x="62" y="449"/>
			<point x="62" y="404" type="curve" smooth="yes"/>
			<point x="62" y="347"/>
			<point x="96" y="310"/>
			<point x="140" y="288" type="curve"/>
			<point x="140" y="284" type="line"/>
			<point x="83" y="270"/>
			<point x="38" y="210"/>
			<point x="38" y="154" type="curve" smooth="yes"/>
			<point x="38" y="36"/>
			<point x="150" y="-12"/>
		</contour>
		<contour>
			<point x="298" y="136" type="curve" smooth="yes"/>
			<point x="229" y="136"/>
			<point x="190" y="153"/>
			<point x="190" y="192" type="curve" smooth="yes"/>
			<point x="190" y="210"/>
			<point x="199" y="231"/>
			<point x="228" y="236" type="curve"/>
			<point x="282" y="216"/>
			<point x="386" y="208"/>
			<point x="386" y="176" type="curve" smooth="yes"/>
			<point x="386" y="156"/>
			<point x="355" y="136"/>
		</contour>
	</outline>
</glyph>
<glyph name="L.sc" format="2">
	<advance width="484"/>
	<outline>
		<contour>
			<point x="72" y="0" type="line"/>
			<point x="444" y="0" type="line"/>
			<point x="444" y="140" type="line"/>
			<point x="244" y="140" type="line"/>
			<point x="244" y="532" type="line"/>
			<point x="72" y="532" type="line"/>
		</contour>
	</outline>
	<anchor name="aboveUC" x="160" y="562"/>
	<anchor name="belowLC" x="270" y="-22"/>
	<anchor name="center" x="160" y="300"/>
</glyph>
<glyph name="Lbar.sc" format="2">
	<advance width="496"/>
	<outline>
		<contour>
			<point x="22" y="248" type="line"/>
			<point x="382" y="248" type="line"/>
			<point x="382" y="360" type="line"/>
			<point x="94" y="360" type="line"/>
			<point x="22" y="354" type="line"/>
		</contour>
		<component base="L.sc" xOffset="20"/>
	</outline>
	<anchor name="aboveUC" x="180" y="562"/>
	<anchor name="belowLC" x="290" y="-22"/>
</glyph>
<glyph name="M.sc" format="2">
	<advance width="700"/>
	<outline>
		<contour>
			<point x="72" y="0" type="line"/>
			<point x="226" y="0" type="line"/>
			<point x="226" y="106" type="line" smooth="yes"/>
			<point x="226" y="163"/>
			<point x="210" y="264"/>
			<point x="202" y="320" type="curve"/>
			<point x="206" y="320" type="line"/>
			<point x="258" y="192" type="line"/>
			<point x="323" y="39" type="line"/>
			<point x="375" y="39" type="line"/>
			<point x="440" y="192" type="line"/>
			<point x="494" y="320" type="line"/>
			<point x="498" y="320" type="line"/>
			<point x="490" y="264"/>
			<point x="474" y="163"/>
			<point x="474" y="106" type="curve" smooth="yes"/>
			<point x="474" y="0" type="line"/>
			<point x="628" y="0" type="line"/>
			<point x="628" y="532" type="line"/>
			<point x="457" y="532" type="line"/>
			<point x="384" y="336" type="line" smooth="yes"/>
			<point x="374" y="310"/>
			<point x="364" y="280"/>
			<point x="354" y="252" type="curve"/>
			<point x="350" y="252" type="line"/>
			<point x="340" y="280"/>
			<point x="330" y="310"/>
			<point x="320" y="336" type="curve" smooth="yes"/>
			<point x="244" y="532" type="line"/>
			<point x="72" y="532" type="line"/>
		</contour>
	</outline>
	<anchor name="aboveUC" x="350" y="562"/>
	<anchor name="belowLC" x="350" y="-22"/>
</glyph>
<glyph name="Rinsular.xs" format="2">
	<advance width="576"/>
	<outline>
		<contour>
			<point x="72" y="0" type="line"/>
			<point x="244" y="0" type="line"/>
			<point x="244" y="342" type="line"/>
			<point x="270" y="382"/>
			<point x="300" y="404"/>
			<point x="326" y="404" type="curve" smooth="yes"/>
			<point x="356" y="404"/>
			<point x="374" y="388"/>
			<point x="374" y="348" type="curve" smooth="yes"/>
			<point x="374" y="308"/>
			<point x="348" y="260"/>
			<point x="272" y="216" type="curve"/>
			<point x="272" y="212" type="line"/>
			<point x="382" y="0" type="line"/>
			<point x="560" y="0" type="line"/>
			<point x="436" y="198" type="line"/>
			<point x="506" y="258"/>
			<point x="536" y="312"/>
			<point x="536" y="400" type="curve" smooth="yes"/>
			<point x="536" y="492"/>
			<point x="478" y="542"/>
			<point x="390" y="542" type="curve" smooth="yes"/>
			<point x="332" y="542"/>
			<point x="284" y="524"/>
			<point x="238" y="482" type="curve"/>
			<point x="238" y="532" type="line"/>
			<point x="72" y="532" type="line"/>
		</contour>
	</outline>
</glyph>
<glyph name="Rrotunda.sc" format="2">
	<advance width="416"/>
	<outline>
		<contour>
			<point x="280" y="-12" type="curve" smooth="yes"/>
			<point x="324" y="-12"/>
			<point x="358" y="-4"/>
			<point x="378" y="8" type="curve"/>
			<point x="352" y="128" type="line"/>
			<point x="340" y="124"/>
			<point x="324" y="120"/>
			<point x="306" y="120" type="curve" smooth="yes"/>
			<point x="274" y="120"/>
			<point x="242" y="124"/>
			<point x="218" y="152" type="curve"/>
			<point x="326" y="226"/>
			<point x="376" y="298"/>
			<point x="376" y="400" type="curve" smooth="yes"/>
			<point x="376" y="484"/>
			<point x="314" y="544"/>
			<point x="208" y="544" type="curve" smooth="yes"/>
			<point x="134" y="544"/>
			<point x="75" y="521"/>
			<point x="18" y="466" type="curve"/>
			<point x="106" y="370" type="line"/>
			<point x="125" y="389"/>
			<point x="144" y="404"/>
			<point x="170" y="404" type="curve"/>
			<point x="198" y="404"/>
			<point x="214" y="388"/>
			<point x="214" y="348" type="curve" smooth="yes"/>
			<point x="214" y="302"/>
			<point x="166" y="250"/>
			<point x="52" y="182" type="curve"/>
			<point x="86" y="50"/>
			<point x="170" y="-12"/>
		</contour>
	</outline>
	<anchor name="aboveUC" x="230" y="562"/>
	<anchor name="belowLC" x="210" y="-22"/>
</glyph>
<glyph name="Sho.sc" format="2">
	<advance width="572"/>
	<outline>
		<contour>
			<point x="72" y="-8" type="line"/>
			<point x="244" y="-8" type="line"/>
			<point x="244" y="54" type="line"/>
			<point x="254" y="54" type="line" smooth="yes"/>
			<point x="417" y="54"/>
			<point x="528" y="125"/>
			<point x="528" y="268" type="curve" smooth="yes"/>
			<point x="528" y="413"/>
			<point x="417" y="482"/>
			<point x="254" y="482" type="curve" smooth="yes"/>
			<point x="244" y="482" type="line"/>
			<point x="244" y="540" type="line"/>
			<point x="72" y="540" type="line"/>
		</contour>
		<contour>
			<point x="244" y="182" type="line"/>
			<point x="244" y="354" type="line"/>
			<point x="252" y="354" type="line" smooth="yes"/>
			<point x="318" y="354"/>
			<point x="362" y="334"/>
			<point x="362" y="268" type="curve" smooth="yes"/>
			<point x="362" y="202"/>
			<point x="318" y="182"/>
			<point x="252" y="182" type="curve" smooth="yes"/>
		</contour>
	</outline>
</glyph>
<glyph name="T.sc" format="2">
	<advance width="500"/>
	<outline>
		<contour>
			<point x="164" y="0" type="line"/>
			<point x="336" y="0" type="line"/>
			<point x="336" y="392" type="line"/>
			<point x="476" y="392" type="line"/>
			<point x="476" y="532" type="line"/>
			<point x="24" y="532" type="line"/>
			<point x="24" y="392" type="line"/>
			<point x="164" y="392" type="line"/>
		</contour>
	</outline>
	<anchor name="aboverightUC" x="400" y="562"/>
	<anchor name="aboveUC" x="250" y="562"/>
	<anchor name="baseLC" x="250" y="0"/>
	<anchor name="belowLC" x="250" y="-22"/>
</glyph>
<glyph name="That.sc" format="2">
	<advance width="596"/>
	<outline>
		<contour>
			<point x="22" y="222" type="line"/>
			<point x="344" y="222" type="line"/>
			<point x="344" y="320" type="line"/>
			<point x="98" y="320" type="line"/>
			<point x="22" y="314" type="line"/>
		</contour>
		<contour>
			<point x="92" y="0" type="line"/>
			<point x="264" y="0" type="line"/>
			<point x="264" y="70" type="line"/>
			<point x="320" y="70" type="line" smooth="yes"/>
			<point x="436" y="70"/>
			<point x="550" y="128"/>
			<point x="550" y="276" type="curve" smooth="yes"/>
			<point x="550" y="428"/>
			<point x="440" y="470"/>
			<point x="320" y="470" type="curve" smooth="yes"/>
			<point x="264" y="470" type="line"/>
			<point x="264" y="532" type="line"/>
			<point x="92" y="532" type="line"/>
		</contour>
		<contour>
			<point x="264" y="184" type="line"/>
			<point x="264" y="356" type="line"/>
			<point x="306" y="356" type="line" smooth="yes"/>
			<point x="354" y="356"/>
			<point x="384" y="338"/>
			<point x="384" y="274" type="curve" smooth="yes"/>
			<point x="384" y="216"/>
			<point x="358" y="184"/>
			<point x="306" y="184" type="curve" smooth="yes"/>
		</contour>
	</outline>
</glyph>
<glyph name="Yat.sc" format="2">
	<advance width="574"/>
	<outline>
		<contour>
			<point x="112" y="0" type="line"/>
			<point x="308" y="0" type="line" smooth="yes"/>
			<point x="431" y="0"/>
			<point x="540" y="40"/>
			<point x="540" y="174" type="curve" smooth="yes"/>
			<point x="540" y="297"/>
			<point x="441" y="342"/>
			<point x="312" y="342" type="curve" smooth="yes"/>
			<point x="284" y="342" type="line"/>
			<point x="284" y="586" type="line"/>
			<point x="112" y="586" type="line"/>
		</contour>
		<contour>
			<point x="284" y="124" type="line"/>
			<point x="284" y="226" type="line"/>
			<point x="302" y="226" type="line" smooth="yes"/>
			<point x="352" y="226"/>
			<point x="378" y="213"/>
			<point x="378" y="174" type="curve" smooth="yes"/>
			<point x="378" y="137"/>
			<point x="346" y="124"/>
			<point x="302" y="124" type="curve" smooth="yes"/>
		</contour>
		<contour>
			<point x="24" y="398" type="line"/>
			<point x="456" y="398" type="line"/>
			<point x="456" y="512" type="line"/>
			<point x="24" y="512" type="line"/>
		</contour>
	</outline>
	<anchor name="aboveUC" x="210" y="602"/>
</glyph>
<glyph name="aogonek.b" format="2">
	<advance width="540"/>
	<outline>
		<contour>
			<point x="428" y="-220" type="curve" smooth="yes"/>
			<point x="466" y="-220"/>
			<point x="514" y="-206"/>
			<point x="544" y="-184" type="curve"/>
			<point x="510" y="-96" type="line"/>
			<point x="498" y="-102"/>
			<point x="482" y="-108"/>
			<point x="464" y="-108" type="curve" smooth="yes"/>
			<point x="446" y="-108"/>
			<point x="426" y="-98"/>
			<point x="426" y="-76" type="curve" smooth="yes"/>
			<point x="426" y="-48"/>
			<point x="453" y="-18"/>
			<point x="538" y="2" type="curve"/>
			<point x="518" y="128" type="line"/>
			<point x="512" y="126"/>
			<point x="510" y="126"/>
			<point x="506" y="126" type="curve" smooth="yes"/>
			<point x="492" y="126"/>
			<point x="482" y="136"/>
			<point x="482" y="170" type="curve"/>
			<point x="482" y="278" type="line" smooth="yes"/>
			<point x="482" y="442"/>
			<point x="404" y="512"/>
			<point x="274" y="512" type="curve" smooth="yes"/>
			<point x="196" y="512"/>
			<point x="124" y="488"/>
			<point x="54" y="446" type="curve"/>
			<point x="114" y="334" type="line"/>
			<point x="166" y="362"/>
			<point x="204" y="376"/>
			<point x="240" y="376" type="curve" smooth="yes"/>
			<point x="284" y="376"/>
			<point x="306" y="360"/>
			<point x="310" y="324" type="curve"/>
			<point x="118" y="304"/>
			<point x="38" y="246"/>
			<point x="38" y="142" type="curve" smooth="yes"/>
			<point x="38" y="60"/>
			<point x="94" y="-12"/>
			<point x="188" y="-12" type="curve" smooth="yes"/>
			<point x="244" y="-12"/>
			<point x="288" y="14"/>
			<point x="332" y="52" type="curve"/>
			<point x="336" y="52" type="line"/>
			<point x="354" y="20"/>
			<point x="378" y="2"/>
			<point x="422" y="-8" type="curve"/>
			<point x="400" y="14" type="line"/>
			<point x="340" y="-22"/>
			<point x="302" y="-62"/>
			<point x="302" y="-116" type="curve" smooth="yes"/>
			<point x="302" y="-186"/>
			<point x="358" y="-220"/>
		</contour>
		<contour>
			<point x="248" y="120" type="curve" smooth="yes"/>
			<point x="218" y="120"/>
			<point x="202" y="133"/>
			<point x="202" y="156" type="curve" smooth="yes"/>
			<point x="202" y="184"/>
			<point x="228" y="210"/>
			<point x="310" y="222" type="curve"/>
			<point x="310" y="154" type="line"/>
			<point x="292" y="134"/>
			<point x="276" y="120"/>
		</contour>
	</outline>
	<anchor name="aboveLC" x="280" y="522"/>
</glyph>
<glyph name="aspercmb" format="2">
	<outline>
		<contour>
			<point x="48" y="564" type="curve"/>
			<point x="60" y="630" type="line"/>
			<point x="38" y="634"/>
			<point x="20" y="642"/>
			<point x="20" y="660" type="curve" smooth="yes"/>
			<point x="20" y="682"/>
			<point x="40" y="696"/>
			<point x="98" y="700" type="curve"/>
			<point x="88" y="794" type="line"/>
			<point x="-58" y="790"/>
			<point x="-104" y="748"/>
			<point x="-104" y="676" type="curve" smooth="yes"/>
			<point x="-104" y="604"/>
			<point x="-34" y="568"/>
		</contour>
	</outline>
	<anchor name="_aboveLC" x="0" y="522"/>
</glyph>
<glyph name="interrobangdown.sc" format="2">
	<advance width="478"/>
	<outline>
		<contour>
			<point x="238" y="-32" type="curve" smooth="yes"/>
			<point x="326" y="-32"/>
			<point x="386" y="2"/>
			<point x="436" y="48" type="curve"/>
			<point x="364" y="134" type="line"/>
			<point x="324" y="100"/>
			<point x="290" y="86"/>
			<point x="250" y="86" type="curve" smooth="yes"/>
			<point x="214" y="86"/>
			<point x="184" y="100"/>
			<point x="184" y="130" type="curve" smooth="yes"/>
			<point x="184" y="160"/>
			<point x="202" y="164"/>
			<point x="236" y="208" type="curve"/>
			<point x="222" y="214" type="line"/>
			<point x="210" y="168" type="line"/>
			<point x="206" y="126" type="line"/>
			<point x="326" y="126" type="line"/>
			<point x="314" y="204" type="line"/>
			<point x="296" y="288" type="line"/>
			<point x="182" y="288" type="line"/>
			<point x="182" y="229"/>
			<point x="40" y="212"/>
			<point x="40" y="98" type="curve" smooth="yes"/>
			<point x="40" y="16"/>
			<point x="118" y="-32"/>
		</contour>
		<contour>
			<point x="242" y="336" type="curve" smooth="yes"/>
			<point x="300" y="336"/>
			<point x="342" y="382"/>
			<point x="342" y="440" type="curve" smooth="yes"/>
			<point x="342" y="498"/>
			<point x="300" y="544"/>
			<point x="242" y="544" type="curve" smooth="yes"/>
			<point x="184" y="544"/>
			<point x="142" y="498"/>
			<point x="142" y="440" type="curve" smooth="yes"/>
			<point x="142" y="382"/>
			<point x="184" y="336"/>
		</contour>
	</outline>
</glyph>
<glyph name="jcrossedtail.x" format="2">
	<advance width="410"/>
	<outline>
		<contour>
			<point x="348" y="-220" type="curve"/>
			<point x="440" y="-182" type="line"/>
			<point x="358" y="20"/>
			<point x="260" y="120"/>
			<point x="134" y="120" type="curve" smooth="yes"/>
			<point x="42" y="120"/>
			<point x="-18" y="60"/>
			<point x="-18" y="-30" type="curve" smooth="yes"/>
			<point x="-18" y="-120"/>
			<point x="44" y="-188"/>
			<point x="148" y="-188" type="curve" smooth="yes"/>
			<point x="284" y="-188"/>
			<point x="352" y="-86"/>
			<point x="352" y="26" type="curve" smooth="yes"/>
			<point x="352" y="500" type="line"/>
			<point x="180" y="500" type="line"/>
			<point x="180" y="0" type="line" smooth="yes"/>
			<point x="180" y="-40"/>
			<point x="166" y="-58"/>
			<point x="142" y="-58" type="curve" smooth="yes"/>
			<point x="116" y="-58"/>
			<point x="104" y="-42"/>
			<point x="104" y="-26" type="curve" smooth="yes"/>
			<point x="104" y="-6"/>
			<point x="116" y="8"/>
			<point x="142" y="8" type="curve" smooth="yes"/>
			<point x="200" y="8"/>
			<point x="294" y="-78"/>
		</contour>
	</outline>
	<anchor name="aboveLC" x="266" y="522"/>
	<anchor name="belowLC" x="160" y="-182"/>
</glyph>
<glyph name="lenistildecmb" format="2">
	<outline>
		<contour>
			<point x="-38" y="563" type="line"/>
			<point x="32" y="570"/>
			<point x="88" y="600"/>
			<point x="88" y="654" type="curve" smooth="yes"/>
			<point x="88" y="702"/>
			<point x="52" y="732"/>
			<point x="-72" y="736" type="curve"/>
			<point x="-80" y="668" type="line"/>
			<point x="-33" y="664"/>
			<point x="-22" y="653"/>
			<point x="-22" y="638" type="curve" smooth="yes"/>
			<point x="-22" y="623"/>
			<point x="-32" y="617"/>
			<point x="-48" y="615" type="curve"/>
		</contour>
		<contour>
			<point x="56" y="750" type="curve" smooth="yes"/>
			<point x="113" y="750"/>
			<point x="153" y="784"/>
			<point x="162" y="870" type="curve"/>
			<point x="76" y="878" type="line"/>
			<point x="70" y="852"/>
			<point x="60" y="842"/>
			<point x="46" y="842" type="curve" smooth="yes"/>
			<point x="20" y="842"/>
			<point x="-2" y="884"/>
			<point x="-56" y="884" type="curve" smooth="yes"/>
			<point x="-113" y="884"/>
			<point x="-153" y="850"/>
			<point x="-162" y="764" type="curve"/>
			<point x="-76" y="756" type="line"/>
			<point x="-70" y="782"/>
			<point x="-60" y="792"/>
			<point x="-46" y="792" type="curve" smooth="yes"/>
			<point x="-20" y="792"/>
			<point x="2" y="750"/>
		</contour>
	</outline>
	<anchor name="_aboveLC" x="0" y="522"/>
</glyph>
<glyph name="ogonekcmb.cap" format="2">
	<outline>
		<contour>
			<point x="18" y="-228" type="curve" smooth="yes"/>
			<point x="58" y="-228"/>
			<point x="108" y="-212"/>
			<point x="138" y="-190" type="curve"/>
			<point x="100" y="-94" type="line"/>
			<point x="90" y="-100"/>
			<point x="74" y="-108"/>
			<point x="58" y="-108" type="curve" smooth="yes"/>
			<point x="32" y="-108"/>
			<point x="16" y="-98"/>
			<point x="16" y="-74" type="curve" smooth="yes"/>
			<point x="16" y="-46"/>
			<point x="40" y="-16"/>
			<point x="70" y="2" type="curve"/>
			<point x="-36" y="2" type="line"/>
			<point x="-72" y="-18"/>
			<point x="-118" y="-66"/>
			<point x="-118" y="-126" type="curve" smooth="yes"/>
			<point x="-118" y="-190"/>
			<point x="-58" y="-228"/>
		</contour>
	</outline>
	<anchor name="_ogonekUC" x="0" y="0"/>
</glyph>
<glyph name="seven.dnom" format="2">
	<advance width="380"/>
	<outline>
		<contour>
			<point x="112" y="0" type="curve"/>
			<point x="244" y="0" type="line"/>
			<point x="250" y="130"/>
			<point x="266" y="214"/>
			<point x="352" y="324" type="curve"/>
			<point x="352" y="390" type="line"/>
			<point x="50" y="390" type="line"/>
			<point x="50" y="286" type="line"/>
			<point x="214" y="286" type="line"/>
			<point x="150" y="186"/>
			<point x="118" y="116"/>
		</contour>
	</outline>
</glyph>
<glyph name="their" format="2">
	<advance width="1304"/>
	<outline>
		<contour>
			<point x="778" y="202" type="line"/>
			<point x="906" y="155"/>
			<point x="945" y="148"/>
			<point x="1032" y="148" type="curve" smooth="yes"/>
			<point x="1160" y="148"/>
			<point x="1244" y="234"/>
			<point x="1244" y="344" type="curve" smooth="yes"/>
			<point x="1244" y="390"/>
			<point x="1232" y="424"/>
			<point x="1208" y="458" type="curve"/>
			<point x="1076" y="404" type="line"/>
			<point x="1086" y="386"/>
			<point x="1090" y="372"/>
			<point x="1090" y="348" type="curve" smooth="yes"/>
			<point x="1090" y="290"/>
			<point x="1058" y="248"/>
			<point x="994" y="248" type="curve" smooth="yes"/>
			<point x="930" y="248"/>
			<point x="896" y="259"/>
			<point x="822" y="284" type="curve"/>
		</contour>
		<component base="they"/>
	</outline>
</glyph>
<glyph name="verticallineabovecmb.cap" format="2">
	<outline>
		<contour>
			<point x="-62" y="690" type="line"/>
			<point x="62" y="690" type="line"/>
			<point x="68" y="900" type="line"/>
			<point x="-68" y="900" type="line"/>
		</contour>
	</outline>
	<anchor name="_aboveUC" x="0" y="672"/>
</glyph>
